<svg xmlns="http://www.w3.org/2000/svg" xmlns:xlink="http://www.w3.org/1999/xlink" width="474" zoomAndPan="magnify" viewBox="0 0 355.5 338.250003" height="451" preserveAspectRatio="xMidYMid meet" version="1.0"><defs><clipPath id="fcfc82d563"><path d="M 0.144531 2 L 354.855469 2 L 354.855469 337.5 L 0.144531 337.5 Z M 0.144531 2 " clip-rule="nonzero"/></clipPath><clipPath id="7d72311d03"><path d="M 0.144531 2 L 354.855469 2 L 354.855469 337.5 L 0.144531 337.5 Z M 0.144531 2 " clip-rule="nonzero"/></clipPath><clipPath id="658e83237c"><path d="M 7 28 L 343 28 L 343 337.5 L 7 337.5 Z M 7 28 " clip-rule="nonzero"/></clipPath></defs><g clip-path="url(#fcfc82d563)"><path fill="#ffa803" d="M 15.671875 337.644531 C 15.476562 337.644531 15.320312 337.488281 15.320312 337.292969 C 15.320312 337.101562 15.476562 336.941406 15.671875 336.941406 L 23.027344 336.949219 L 32.796875 157.347656 L 32.710938 157.34375 C 32.523438 157.332031 32.375 157.179688 32.375 156.996094 L 32.375 156.90625 L 4.003906 156.90625 C 1.921875 156.90625 0.230469 155.214844 0.230469 153.132812 C 0.230469 151.050781 1.921875 149.359375 4.003906 149.359375 L 19.328125 149.359375 L 19.328125 149.183594 C 15.675781 149.183594 12.703125 146.210938 12.703125 142.554688 C 12.703125 139.425781 14.921875 136.699219 17.976562 136.066406 L 17.960938 135.890625 L 16.023438 135.890625 L 16.023438 135.980469 C 16.023438 136.171875 15.867188 136.332031 15.671875 136.332031 L 14.414062 136.332031 C 13.585938 136.332031 12.761719 136.179688 11.964844 135.882812 C 8.363281 135.742188 5.5625 132.839844 5.5625 129.261719 C 5.5625 125.6875 8.363281 122.78125 11.9375 122.648438 C 12.761719 122.347656 13.585938 122.195312 14.414062 122.195312 L 15.671875 122.195312 C 15.867188 122.195312 16.023438 122.351562 16.023438 122.546875 L 16.023438 122.636719 L 20.523438 122.636719 L 20.523438 121.097656 L 22.328125 121.097656 L 22.328125 110.566406 L 20.523438 110.566406 L 20.523438 109.203125 L 92.332031 109.203125 C 93.851562 109.203125 95.339844 109.734375 96.515625 110.695312 L 97.0625 110.714844 C 97.253906 110.714844 97.414062 110.871094 97.414062 111.066406 C 97.414062 111.164062 97.371094 111.253906 97.296875 111.324219 L 97.234375 111.382812 L 97.289062 111.445312 C 98.363281 112.660156 98.957031 114.21875 98.957031 115.832031 C 98.957031 117.433594 98.371094 118.984375 97.304688 120.199219 L 97.25 120.261719 L 97.308594 120.320312 C 97.375 120.382812 97.414062 120.472656 97.414062 120.566406 C 97.414062 120.761719 97.253906 120.917969 97.0625 120.917969 L 96.609375 120.917969 C 95.367188 121.917969 93.871094 122.460938 92.332031 122.460938 L 87.046875 122.460938 L 87.046875 123.996094 L 84.5625 123.996094 L 84.5625 134.527344 L 87.046875 134.527344 L 87.046875 135.925781 L 94.1875 135.925781 L 94.1875 137.289062 L 91.707031 137.289062 L 91.707031 147.820312 L 94.1875 147.820312 L 94.1875 149.359375 L 137.742188 149.359375 L 137.742188 146.492188 L 120.1875 146.492188 C 118.570312 146.492188 117.011719 145.902344 115.796875 144.835938 L 111.007812 143.476562 C 104.730469 141.703125 100.882812 135.316406 102.25 128.933594 C 102.355469 128.441406 102.496094 127.90625 102.679688 127.308594 L 102.71875 127.195312 L 102.597656 127.195312 C 102.449219 127.121094 102.394531 127.042969 102.375 126.953125 C 102.351562 126.859375 102.371094 126.765625 102.421875 126.6875 L 102.640625 126.34375 L 102.636719 126.289062 C 101.453125 122.390625 101.867188 118.285156 103.804688 114.722656 L 136.273438 55.070312 L 137.703125 54.203125 L 137.742188 49.96875 L 145.75 49.96875 C 151.933594 47.40625 158.417969 46.105469 165.058594 46.105469 L 167.933594 46.105469 C 167.933594 46.105469 167.972656 45.796875 167.984375 45.746094 L 172.453125 20.902344 C 174.402344 10.078125 183.777344 2.222656 194.75 2.222656 C 196.097656 2.222656 197.460938 2.347656 198.796875 2.585938 C 204.757812 3.660156 209.949219 6.996094 213.402344 11.972656 C 216.859375 16.953125 218.171875 22.980469 217.097656 28.949219 L 216.769531 30.777344 L 216.84375 30.804688 C 216.9375 30.839844 217.007812 30.910156 217.042969 30.996094 C 217.078125 31.082031 217.082031 31.175781 217.042969 31.265625 L 217.003906 31.34375 L 217.058594 31.414062 C 219.667969 32.734375 221.289062 35.351562 221.289062 38.25 C 221.289062 42.484375 217.84375 45.929688 213.613281 45.929688 C 213.320312 45.929688 213.007812 45.910156 212.632812 45.859375 L 212.574219 45.851562 L 212.332031 46.296875 L 212.464844 46.308594 C 220.691406 47.089844 228.484375 50.195312 235.003906 55.289062 L 248.859375 55.308594 L 248.859375 55.027344 C 248.859375 54.835938 249.019531 54.675781 249.214844 54.675781 L 249.300781 54.675781 L 249.300781 49.96875 L 260.085938 49.96875 L 260.085938 149.359375 L 275.542969 149.359375 L 275.542969 139.625 L 281.472656 139.625 L 281.472656 133.992188 L 290.40625 133.992188 L 290.40625 121.324219 L 290.320312 121.324219 C 290.125 121.324219 289.96875 121.167969 289.96875 120.972656 C 289.96875 120.777344 290.125 120.621094 290.320312 120.621094 L 290.40625 120.621094 L 290.40625 118.222656 L 290.320312 118.222656 C 290.125 118.222656 289.96875 118.066406 289.96875 117.871094 C 289.96875 117.675781 290.125 117.519531 290.320312 117.519531 L 290.40625 117.519531 L 290.40625 111.351562 L 296.660156 111.351562 L 293.097656 86.328125 L 296.113281 85.875 L 298.941406 105.730469 L 299.117188 105.722656 L 299.523438 98.535156 L 302.609375 98.535156 L 301.882812 111.351562 L 305.976562 111.351562 L 307.796875 86.988281 C 307.859375 86.191406 308.53125 85.5625 309.332031 85.5625 C 309.765625 85.5625 310.164062 85.738281 310.460938 86.058594 C 310.753906 86.375 310.898438 86.785156 310.867188 87.21875 L 310.847656 87.453125 L 310.925781 87.464844 C 311.109375 87.496094 311.238281 87.652344 311.222656 87.832031 L 310.261719 101.191406 C 310.25 101.375 310.09375 101.519531 309.910156 101.519531 L 309.828125 101.519531 L 309.792969 101.597656 L 309.0625 111.351562 L 311.296875 111.351562 L 312.019531 98.535156 L 315.105469 98.535156 L 314.378906 111.351562 L 317.441406 111.351562 L 317.441406 117.519531 L 317.527344 117.519531 C 317.722656 117.519531 317.878906 117.675781 317.878906 117.871094 C 317.878906 118.066406 317.722656 118.222656 317.527344 118.222656 L 317.441406 118.222656 L 317.441406 120.621094 L 317.527344 120.621094 C 317.722656 120.621094 317.878906 120.777344 317.878906 120.972656 C 317.878906 121.167969 317.722656 121.324219 317.527344 121.324219 L 317.441406 121.324219 L 317.441406 130.355469 L 332.492188 130.355469 L 332.492188 140.039062 L 339.121094 140.039062 L 339.121094 149.359375 L 351.496094 149.359375 C 353.578125 149.359375 355.269531 151.050781 355.269531 153.132812 C 355.269531 155.214844 353.578125 156.90625 351.496094 156.90625 L 323.125 156.90625 L 323.125 156.996094 C 323.125 157.179688 322.976562 157.332031 322.792969 157.34375 L 322.703125 157.347656 L 332.492188 337.269531 L 342.367188 337.277344 C 342.5625 337.277344 342.71875 337.4375 342.71875 337.632812 C 342.71875 337.824219 342.5625 337.984375 342.367188 337.984375 Z M 302.285156 337.238281 L 325.972656 337.261719 L 310.992188 165.503906 L 310.984375 165.503906 L 310.28125 157.347656 L 292.496094 157.347656 Z M 260.085938 207.332031 L 260.144531 207.351562 C 260.292969 207.398438 260.394531 207.53125 260.394531 207.683594 C 260.394531 207.832031 260.292969 207.964844 260.144531 208.011719 L 260.085938 208.03125 L 260.085938 337.191406 L 295.765625 337.230469 L 280.785156 165.515625 L 280.78125 165.515625 L 280.046875 157.347656 L 260.085938 157.347656 L 260.085938 189 C 261.367188 190.34375 262.058594 192.039062 262.058594 193.832031 L 262.058594 196.515625 C 262.058594 196.898438 261.742188 197.210938 261.359375 197.210938 L 260.085938 197.210938 Z M 215.292969 337.148438 L 218.5 337.152344 L 215.613281 331.855469 Z M 148.527344 337.078125 L 203.335938 337.136719 L 202.757812 330.636719 C 202.355469 326.132812 203.332031 321.683594 205.585938 317.765625 L 205.703125 317.792969 L 206.96875 314.058594 L 198.386719 314.058594 L 198.585938 307.871094 L 198.496094 307.871094 C 198.304688 307.863281 198.15625 307.710938 198.15625 307.519531 C 198.15625 307.324219 198.3125 307.167969 198.507812 307.167969 L 198.59375 307.167969 L 198.609375 307.082031 L 201.820312 207.59375 L 148.96875 207.59375 L 148.96875 207.683594 C 148.96875 207.875 148.808594 208.035156 148.613281 208.035156 L 148.527344 208.035156 Z M 118.558594 336.578125 L 118.542969 337.046875 L 121.949219 337.050781 L 121.023438 332.878906 Z M 74.707031 165.609375 L 59.757812 336.988281 L 77.441406 337.003906 L 77.441406 334.1875 C 78.65625 329.242188 82.695312 325.441406 87.726562 324.535156 L 99.351562 322.429688 L 99.09375 322.066406 L 107.457031 318.582031 L 107.722656 318.378906 L 107.757812 314.058594 L 104.605469 314.058594 L 104.160156 307.871094 L 104.078125 307.871094 C 103.804688 307.871094 103.644531 307.714844 103.644531 307.519531 C 103.644531 307.324219 103.804688 307.167969 103.996094 307.167969 L 104.09375 307.167969 L 104.101562 307.074219 L 96.214844 197.210938 L 95.585938 197.210938 C 95.199219 197.210938 94.886719 196.898438 94.886719 196.515625 L 94.886719 193.832031 C 94.886719 192.6875 95.175781 191.558594 95.722656 190.558594 L 94.945312 179.570312 C 94.34375 171.15625 98.410156 163.152344 105.5625 158.671875 L 105.824219 158.511719 L 105.777344 158.511719 L 107.34375 157.347656 L 75.457031 157.347656 L 74.71875 165.519531 Z M 44.5 165.613281 L 29.554688 336.957031 L 53.230469 336.980469 L 63.003906 157.347656 L 45.21875 157.347656 L 44.515625 165.511719 Z M 230.097656 314.445312 L 230.160156 314.464844 C 231.558594 314.914062 232.859375 315.578125 234.03125 316.445312 L 238.296875 319.601562 L 243.214844 321.480469 C 245.46875 322.339844 247.519531 323.738281 249.148438 325.53125 L 249.300781 325.699219 L 249.300781 208.035156 L 249.082031 208.035156 C 248.890625 208.035156 248.730469 207.875 248.730469 207.683594 L 248.730469 207.59375 L 244.179688 207.59375 L 236.707031 290.214844 L 238.671875 307.167969 L 238.867188 307.167969 C 239.0625 307.167969 239.21875 307.324219 239.21875 307.519531 C 239.21875 307.714844 239.0625 307.871094 238.867188 307.871094 L 238.769531 307.871094 L 238.765625 307.96875 L 239.472656 314.058594 L 230.097656 314.058594 Z M 244.871094 163.601562 C 246.746094 166.625 247.570312 170.09375 247.25 173.628906 L 246.039062 187.007812 L 249.300781 187.007812 L 249.300781 157.347656 L 239.917969 157.347656 L 240.101562 157.503906 C 240.886719 158.171875 242.53125 159.824219 244.777344 163.441406 Z M 249.207031 149.136719 C 248.914062 149.164062 248.621094 149.183594 248.324219 149.183594 L 248.324219 149.359375 L 249.300781 149.359375 L 249.300781 149.175781 Z M 136.378906 119.84375 L 137.074219 120.453125 C 137.140625 120.511719 137.199219 120.574219 137.257812 120.636719 L 137.347656 120.726562 L 137.476562 120.605469 C 136.9375 120.019531 136.507812 119.71875 136.488281 119.703125 Z M 136.378906 119.84375 " fill-opacity="1" fill-rule="nonzero"/></g><path fill="#0b2e7f" d="M 95.644531 190.515625 L 96.132812 197.300781 L 95.585938 197.300781 C 95.152344 197.300781 94.800781 196.949219 94.800781 196.515625 L 94.800781 193.832031 C 94.800781 192.628906 95.105469 191.5 95.644531 190.515625 Z M 199.164062 188.992188 L 199.328125 188.316406 L 171.902344 188.316406 L 152.496094 193.441406 L 152.320312 193.667969 C 151.269531 195.027344 150.011719 196.191406 148.613281 197.144531 C 148.539062 197.195312 148.46875 197.25 148.390625 197.300781 L 202.066406 197.300781 L 202.125 195.460938 C 199.753906 194.253906 198.527344 191.574219 199.164062 188.992188 Z M 255.238281 186.917969 L 246.136719 186.917969 L 245.199219 197.300781 L 261.359375 197.300781 C 261.792969 197.300781 262.144531 196.949219 262.144531 196.515625 L 262.144531 193.832031 C 262.144531 191.949219 261.390625 190.246094 260.171875 189 C 258.917969 187.714844 257.171875 186.917969 255.238281 186.917969 Z M 314.472656 111.265625 L 290.320312 111.265625 L 290.320312 149.269531 L 317.527344 149.269531 L 317.527344 111.265625 Z M 87.136719 135.839844 L 87.136719 135.980469 L 17.960938 135.980469 C 14.910156 136.609375 12.617188 139.316406 12.617188 142.554688 C 12.617188 146.265625 15.621094 149.269531 19.328125 149.269531 L 94.277344 149.269531 L 94.277344 147.730469 L 53.125 147.730469 C 50.265625 147.730469 47.949219 145.414062 47.949219 142.554688 C 47.949219 139.695312 50.265625 137.378906 53.125 137.378906 L 94.277344 137.378906 L 94.277344 135.839844 Z M 87.136719 135.839844 " fill-opacity="1" fill-rule="nonzero"/><g clip-path="url(#7d72311d03)"><path fill="#ffa803" d="M 138.644531 53.515625 L 137.65625 54.125 L 137.65625 49.882812 L 145.746094 49.882812 C 143.296875 50.902344 140.921875 52.109375 138.644531 53.515625 Z M 113.4375 314.148438 L 107.671875 314.148438 L 107.671875 337.292969 L 118.628906 337.292969 L 118.628906 322.535156 L 113.4375 322.535156 Z M 227.175781 322.535156 L 219.226562 322.535156 L 219.226562 337.292969 L 230.1875 337.292969 L 230.1875 314.148438 L 230.019531 314.148438 Z M 148.390625 197.300781 C 146.792969 198.355469 145.011719 199.128906 143.121094 199.570312 L 143.15625 207.683594 L 143.648438 314.148438 L 143.648438 322.535156 L 137.65625 322.535156 L 137.65625 337.292969 L 148.613281 337.292969 L 148.613281 207.683594 L 201.730469 207.683594 L 202.066406 197.300781 Z M 249.214844 197.300781 L 245.199219 197.300781 L 244.257812 207.683594 L 249.214844 207.683594 L 249.214844 337.292969 L 260.171875 337.292969 L 260.171875 197.300781 Z M 175.847656 60.828125 L 175.730469 62.277344 L 187.945312 76.15625 L 205.386719 55.21875 L 206.183594 54.261719 C 208.21875 52.398438 210.011719 50.253906 211.5 47.882812 C 211.839844 47.339844 212.164062 46.785156 212.472656 46.222656 C 212.519531 46.128906 212.574219 46.039062 212.621094 45.949219 C 212.949219 45.988281 213.277344 46.019531 213.613281 46.019531 C 217.898438 46.019531 221.375 42.539062 221.375 38.25 C 221.375 35.09375 219.492188 32.382812 216.789062 31.167969 L 217.1875 28.960938 C 219.414062 16.578125 211.1875 4.730469 198.8125 2.5 C 186.4375 0.269531 174.597656 8.5 172.367188 20.886719 L 167.894531 45.730469 C 167.878906 45.828125 167.875 45.921875 167.859375 46.019531 C 167.335938 49.320312 168.019531 52.539062 169.597656 55.21875 C 171.03125 57.652344 173.191406 59.632812 175.847656 60.828125 Z M 213.761719 130.621094 C 212.367188 131.136719 210.804688 130.847656 209.6875 129.867188 L 205.179688 125.910156 C 202.839844 123.851562 199.398438 123.664062 196.84375 125.453125 C 196.84375 125.453125 194.257812 123.847656 192.785156 124.777344 C 191.308594 125.710938 183.546875 133.632812 183.3125 134.023438 C 183.199219 134.214844 182.65625 136.261719 182.394531 138.398438 L 248.589844 138.398438 L 248.511719 138.601562 C 248.121094 139.640625 247.617188 140.621094 247.058594 141.558594 C 246.382812 142.6875 245.59375 143.730469 244.703125 144.683594 C 243.445312 146.027344 241.992188 147.175781 240.378906 148.09375 C 243.496094 148.128906 246.480469 146.886719 248.648438 144.683594 C 248.84375 144.484375 249.03125 144.277344 249.214844 144.066406 C 249.5 143.726562 249.773438 143.375 250.023438 143 C 250.402344 142.425781 250.722656 141.828125 250.988281 141.214844 C 252.726562 137.222656 252.035156 132.566406 249.214844 129.25 C 248.785156 128.746094 248.3125 128.273438 247.785156 127.835938 C 242.703125 123.632812 235.761719 122.457031 229.578125 124.75 L 228.988281 124.96875 L 227.929688 125.363281 L 221.203125 127.859375 Z M 351.496094 149.269531 L 260.171875 149.269531 L 260.171875 49.882812 L 249.214844 49.882812 L 249.214844 55.21875 L 235.058594 55.21875 C 237.082031 56.800781 238.984375 58.558594 240.71875 60.503906 L 243.316406 63.417969 L 244.839844 65.40625 C 246.484375 67.550781 247.941406 69.820312 249.214844 72.179688 C 251.949219 77.257812 253.804688 82.769531 254.691406 88.484375 C 254.921875 89.957031 255.09375 91.445312 255.195312 92.945312 L 257.582031 129.257812 C 258.0625 130.445312 258.324219 131.722656 258.324219 133.023438 L 258.324219 139.265625 C 258.324219 139.515625 258.304688 139.761719 258.289062 140.003906 L 258.324219 140.574219 L 258.230469 140.582031 C 257.621094 145.195312 253.882812 148.8125 249.214844 149.226562 L 249.214844 149.269531 L 237.957031 149.269531 C 237.914062 149.289062 237.871094 149.3125 237.824219 149.328125 L 169.425781 149.328125 C 169.445312 149.320312 169.464844 149.3125 169.488281 149.304688 C 169.511719 149.292969 169.535156 149.28125 169.558594 149.269531 L 139.5 149.269531 C 139.804688 149.09375 140.113281 148.925781 140.421875 148.753906 L 140.324219 146.578125 L 154.929688 146.578125 C 154.929688 146.578125 161.449219 150.824219 166.003906 148.652344 C 166.003906 148.652344 168.796875 149.375 168.28125 144.820312 C 168.28125 144.820312 169.789062 145.207031 171.136719 144.683594 C 171.804688 144.421875 172.433594 143.9375 172.8125 143.058594 C 172.964844 142.707031 173.082031 142.300781 173.144531 141.816406 C 173.144531 141.816406 176.664062 144.09375 177.75 141.609375 C 178.835938 139.121094 174.386719 135.808594 173.765625 132.597656 C 173.144531 129.386719 172.210938 128.972656 167.96875 126.175781 C 165.472656 124.53125 161.042969 123.300781 157.820312 122.566406 C 155.449219 122.027344 152.984375 122.871094 151.417969 124.726562 L 148.613281 128.050781 L 148.097656 128.664062 C 148.097656 128.664062 145.945312 127.421875 143.136719 126.046875 C 141.945312 125.464844 140.632812 124.859375 139.316406 124.3125 L 138.953125 116.203125 L 137.65625 118.046875 L 137.65625 120.90625 C 138.550781 121.890625 139.097656 123.074219 139.300781 124.304688 C 138.75 124.074219 138.199219 123.859375 137.65625 123.65625 C 136.511719 123.234375 135.402344 122.886719 134.398438 122.671875 C 133.898438 122.5625 133.421875 122.484375 132.984375 122.449219 C 132.480469 122.40625 131.957031 122.398438 131.425781 122.414062 C 125.789062 122.582031 120.683594 125.800781 117.796875 130.644531 L 114.386719 136.367188 C 114.289062 136.539062 114.210938 136.714844 114.128906 136.890625 C 113.058594 139.097656 113.25 141.726562 114.691406 143.75 C 114.996094 144.175781 115.351562 144.5625 115.738281 144.902344 C 116.957031 145.96875 118.53125 146.578125 120.1875 146.578125 L 137.65625 146.578125 L 137.65625 149.269531 L 4.003906 149.269531 C 1.871094 149.269531 0.144531 151 0.144531 153.132812 C 0.144531 155.265625 1.871094 156.996094 4.003906 156.996094 L 32.726562 156.996094 L 22.917969 337.292969 L 29.613281 337.292969 L 45.339844 156.996094 L 62.933594 156.996094 L 53.125 337.292969 L 59.820312 337.292969 L 75.546875 156.996094 L 249.214844 156.996094 L 249.214844 186.917969 L 255.238281 186.917969 C 257.171875 186.917969 258.917969 187.714844 260.171875 189 L 260.171875 156.996094 L 279.953125 156.996094 L 295.679688 337.292969 L 302.375 337.292969 L 292.566406 156.996094 L 310.160156 156.996094 L 325.886719 337.292969 L 332.582031 337.292969 L 322.773438 156.996094 L 351.496094 156.996094 C 353.628906 156.996094 355.355469 155.265625 355.355469 153.132812 C 355.355469 151 353.628906 149.269531 351.496094 149.269531 Z M 51.828125 122.546875 L 92.332031 122.546875 C 96.039062 122.546875 99.042969 119.539062 99.042969 115.832031 C 99.042969 112.121094 96.039062 109.113281 92.332031 109.113281 L 20.433594 109.113281 L 20.433594 110.652344 L 58.535156 110.652344 C 61.390625 110.652344 63.710938 112.972656 63.710938 115.832031 C 63.710938 118.691406 61.390625 121.007812 58.535156 121.007812 L 20.433594 121.007812 L 20.433594 122.546875 Z M 51.828125 122.546875 " fill-opacity="1" fill-rule="nonzero"/></g><path fill="#f7e8dc" d="M 137.65625 314.148438 L 143.648438 314.148438 L 143.648438 322.535156 L 113.4375 322.535156 L 113.4375 314.148438 Z M 206.847656 314.148438 L 204.003906 322.535156 L 227.175781 322.535156 L 230.019531 314.148438 Z M 257.582031 129.257812 C 258.0625 130.445312 258.324219 131.722656 258.324219 133.023438 L 258.324219 139.265625 C 258.324219 139.515625 258.304688 139.761719 258.289062 140.003906 L 258.324219 140.574219 L 258.230469 140.582031 C 257.621094 145.195312 253.882812 148.8125 249.214844 149.226562 C 248.921875 149.25 248.625 149.269531 248.324219 149.269531 L 237.957031 149.269531 C 237.914062 149.289062 237.871094 149.3125 237.824219 149.328125 L 169.425781 149.328125 C 169.445312 149.320312 169.464844 149.3125 169.488281 149.304688 C 169.511719 149.292969 169.535156 149.28125 169.558594 149.269531 L 139.5 149.269531 C 139.804688 149.09375 140.113281 148.925781 140.421875 148.753906 L 140.324219 146.578125 L 154.929688 146.578125 C 154.929688 146.578125 161.449219 150.824219 166.003906 148.652344 C 166.003906 148.652344 168.796875 149.375 168.28125 144.820312 C 168.28125 144.820312 169.789062 145.207031 171.136719 144.683594 C 171.804688 144.421875 172.433594 143.9375 172.8125 143.058594 C 172.964844 142.707031 173.082031 142.300781 173.144531 141.816406 C 173.144531 141.816406 176.664062 144.09375 177.75 141.609375 C 178.835938 139.121094 174.386719 135.808594 173.765625 132.597656 C 173.144531 129.386719 172.210938 128.972656 167.96875 126.175781 C 165.472656 124.53125 161.042969 123.300781 157.820312 122.566406 C 155.449219 122.027344 152.984375 122.871094 151.417969 124.726562 L 148.613281 128.050781 L 148.097656 128.664062 C 148.097656 128.664062 145.945312 127.421875 143.136719 126.046875 C 141.945312 125.464844 140.632812 124.859375 139.316406 124.3125 L 138.953125 116.203125 L 137.65625 118.046875 L 136.4375 119.777344 L 137.132812 120.386719 C 137.320312 120.554688 137.492188 120.726562 137.65625 120.90625 C 138.550781 121.890625 139.097656 123.074219 139.300781 124.304688 C 138.75 124.074219 138.199219 123.859375 137.65625 123.65625 C 136.511719 123.234375 135.402344 122.886719 134.398438 122.671875 C 133.898438 122.5625 133.421875 122.484375 132.984375 122.449219 C 132.480469 122.40625 131.957031 122.398438 131.425781 122.414062 C 125.789062 122.582031 120.683594 125.800781 117.796875 130.644531 L 114.386719 136.367188 C 114.289062 136.539062 114.210938 136.714844 114.128906 136.890625 C 113.058594 139.097656 113.25 141.726562 114.691406 143.75 C 114.996094 144.175781 115.351562 144.5625 115.738281 144.902344 L 110.984375 143.558594 C 104.644531 141.773438 100.78125 135.363281 102.164062 128.917969 C 102.3125 128.222656 102.5 127.546875 102.71875 126.878906 C 101.382812 123.023438 101.582031 118.625 103.726562 114.683594 L 136.195312 55.027344 L 137.65625 54.125 L 138.644531 53.515625 C 140.921875 52.109375 143.296875 50.902344 145.746094 49.882812 C 151.84375 47.347656 158.402344 46.019531 165.058594 46.019531 L 167.859375 46.019531 C 167.335938 49.320312 168.019531 52.539062 169.597656 55.21875 C 171.03125 57.652344 173.191406 59.632812 175.847656 60.828125 L 175.730469 62.277344 L 187.945312 76.15625 L 205.386719 55.21875 L 206.183594 54.261719 C 208.21875 52.398438 210.011719 50.253906 211.5 47.882812 C 211.839844 47.339844 212.164062 46.785156 212.472656 46.222656 C 220.730469 47.003906 228.558594 50.140625 235.058594 55.21875 C 237.082031 56.800781 238.984375 58.558594 240.71875 60.503906 L 243.316406 63.417969 L 244.839844 65.40625 C 246.484375 67.550781 247.941406 69.820312 249.214844 72.179688 C 251.949219 77.257812 253.804688 82.769531 254.691406 88.484375 C 254.921875 89.957031 255.09375 91.445312 255.195312 92.945312 Z M 248.648438 144.683594 C 248.84375 144.484375 249.03125 144.277344 249.214844 144.066406 C 249.5 143.726562 249.773438 143.375 250.023438 143 C 250.402344 142.425781 250.722656 141.828125 250.988281 141.214844 C 252.726562 137.222656 252.035156 132.566406 249.214844 129.25 C 248.785156 128.746094 248.3125 128.273438 247.785156 127.835938 C 242.703125 123.632812 235.761719 122.457031 229.578125 124.75 L 228.988281 124.96875 L 227.929688 125.363281 L 221.203125 127.859375 L 213.761719 130.621094 C 212.367188 131.136719 210.804688 130.847656 209.6875 129.867188 L 205.179688 125.910156 C 202.839844 123.851562 199.398438 123.664062 196.84375 125.453125 C 196.84375 125.453125 194.257812 123.847656 192.785156 124.777344 C 191.308594 125.710938 183.546875 133.632812 183.3125 134.023438 C 183.199219 134.214844 182.65625 136.261719 182.394531 138.398438 L 248.589844 138.398438 L 248.511719 138.601562 C 248.121094 139.640625 247.617188 140.621094 247.058594 141.558594 C 246.382812 142.6875 245.59375 143.730469 244.703125 144.683594 C 243.445312 146.027344 241.992188 147.175781 240.378906 148.09375 C 243.496094 148.128906 246.480469 146.886719 248.648438 144.683594 Z M 311.9375 98.449219 L 311.210938 111.265625 L 314.472656 111.265625 L 315.199219 98.449219 Z M 53.125 137.378906 C 50.265625 137.378906 47.949219 139.695312 47.949219 142.554688 C 47.949219 145.414062 50.265625 147.730469 53.125 147.730469 L 92.457031 147.730469 L 92.457031 137.378906 Z M 58.535156 121.007812 C 61.390625 121.007812 63.710938 118.691406 63.710938 115.832031 C 63.710938 112.972656 61.390625 110.652344 58.535156 110.652344 L 22 110.652344 L 22 121.007812 Z M 85.1875 134.441406 L 85.1875 124.085938 L 45.984375 124.085938 C 43.125 124.085938 40.808594 126.402344 40.808594 129.261719 C 40.808594 132.121094 43.125 134.441406 45.984375 134.441406 Z M 85.1875 134.441406 " fill-opacity="1" fill-rule="nonzero"/><path fill="#1f52bc" d="M 247.335938 173.636719 L 246.136719 186.917969 L 245.199219 197.300781 L 244.257812 207.683594 L 236.796875 290.222656 L 239.570312 314.148438 L 198.292969 314.148438 L 201.730469 207.683594 L 202.066406 197.300781 L 202.125 195.460938 C 199.753906 194.253906 198.527344 191.574219 199.164062 188.992188 L 199.328125 188.316406 L 171.902344 188.316406 L 152.496094 193.441406 L 152.320312 193.667969 C 151.269531 195.027344 150.011719 196.191406 148.613281 197.144531 C 148.539062 197.195312 148.46875 197.25 148.390625 197.300781 C 146.792969 198.355469 145.011719 199.128906 143.121094 199.570312 L 143.15625 207.683594 L 143.648438 314.148438 L 104.523438 314.148438 L 96.132812 197.300781 L 95.644531 190.515625 L 94.859375 179.574219 C 94.148438 169.695312 99.855469 160.753906 108.5625 156.996094 L 237.109375 156.996094 C 243.820312 159.664062 247.988281 166.429688 247.335938 173.636719 Z M 292.996094 86.253906 L 296.558594 111.265625 L 299.816406 111.265625 L 296.191406 85.773438 Z M 309.332031 85.476562 C 308.480469 85.476562 307.773438 86.132812 307.710938 86.980469 L 305.894531 111.265625 L 309.15625 111.265625 L 310.953125 87.222656 C 311.023438 86.28125 310.277344 85.476562 309.332031 85.476562 Z M 275.453125 149.269531 L 290.320312 149.269531 L 290.320312 137.027344 L 281.472656 139.539062 L 275.453125 139.539062 Z M 317.527344 130.269531 L 317.527344 149.269531 L 332.582031 149.269531 L 332.582031 130.269531 Z M 69.4375 122.546875 L 12.1875 122.546875 C 8.480469 122.546875 5.472656 125.554688 5.472656 129.261719 C 5.472656 132.972656 8.480469 135.980469 12.1875 135.980469 L 87.136719 135.980469 L 87.136719 134.441406 L 45.984375 134.441406 C 43.125 134.441406 40.808594 132.121094 40.808594 129.261719 C 40.808594 126.402344 43.125 124.085938 45.984375 124.085938 L 87.136719 124.085938 L 87.136719 122.546875 Z M 69.4375 122.546875 " fill-opacity="1" fill-rule="nonzero"/><path fill="#f7e8dc" d="M 192.351562 29.082031 C 192.21875 29.082031 192.085938 29.019531 192 28.90625 C 189.367188 25.445312 186.242188 25.285156 186.210938 25.285156 C 185.96875 25.273438 185.777344 25.070312 185.785156 24.828125 C 185.792969 24.585938 185.976562 24.40625 186.238281 24.402344 C 186.382812 24.410156 189.800781 24.5625 192.699219 28.375 C 192.847656 28.566406 192.808594 28.84375 192.617188 28.992188 C 192.535156 29.050781 192.441406 29.082031 192.351562 29.082031 Z M 178.964844 24.5 C 178.871094 24.5 178.777344 24.46875 178.699219 24.410156 C 175.28125 21.824219 173.054688 24.246094 172.960938 24.351562 C 172.796875 24.53125 172.519531 24.546875 172.339844 24.386719 C 172.160156 24.226562 172.140625 23.949219 172.300781 23.769531 C 172.328125 23.734375 175.144531 20.621094 179.230469 23.707031 C 179.421875 23.855469 179.460938 24.128906 179.316406 24.324219 C 179.230469 24.4375 179.097656 24.5 178.964844 24.5 Z M 189.550781 21.707031 C 189.53125 21.707031 189.511719 21.707031 189.492188 21.703125 C 183.285156 20.875 177.621094 18.273438 177.566406 18.25 C 177.34375 18.144531 177.25 17.886719 177.351562 17.664062 C 177.453125 17.441406 177.714844 17.347656 177.933594 17.449219 C 177.988281 17.476562 183.539062 20.019531 189.609375 20.828125 C 189.847656 20.863281 190.015625 21.082031 189.984375 21.324219 C 189.957031 21.546875 189.765625 21.707031 189.550781 21.707031 Z M 188.871094 18.289062 C 188.851562 18.289062 188.832031 18.289062 188.808594 18.285156 C 184.578125 17.71875 180.832031 16 180.671875 15.929688 C 180.453125 15.828125 180.359375 15.566406 180.457031 15.34375 C 180.5625 15.121094 180.820312 15.027344 181.042969 15.128906 C 181.078125 15.144531 184.828125 16.867188 188.925781 17.414062 C 189.167969 17.445312 189.335938 17.664062 189.304688 17.90625 C 189.273438 18.128906 189.085938 18.289062 188.871094 18.289062 Z M 174.6875 43.589844 L 169.316406 47.882812 L 171.167969 47.972656 C 174.027344 48.109375 176.769531 46.839844 178.515625 44.566406 L 178.964844 43.980469 Z M 178.269531 43.984375 L 178.320312 44.132812 C 179.480469 47.359375 182.136719 49.824219 185.441406 50.734375 L 188.613281 51.609375 L 182.5625 43.964844 Z M 178.269531 43.984375 " fill-opacity="1" fill-rule="nonzero"/><g clip-path="url(#658e83237c)"><path fill="#312114" d="M 148.613281 208.121094 L 143.160156 208.121094 L 143.15625 207.683594 L 143.15625 207.242188 L 148.613281 207.242188 C 148.859375 207.242188 149.054688 207.4375 149.054688 207.683594 C 149.054688 207.925781 148.859375 208.121094 148.613281 208.121094 Z M 260.042969 207.242188 L 249.082031 207.242188 C 248.839844 207.242188 248.644531 207.4375 248.644531 207.683594 C 248.644531 207.925781 248.839844 208.121094 249.082031 208.121094 L 260.042969 208.121094 C 260.089844 208.121094 260.128906 208.109375 260.171875 208.097656 C 260.351562 208.039062 260.484375 207.878906 260.484375 207.683594 C 260.484375 207.484375 260.351562 207.324219 260.171875 207.269531 C 260.128906 207.253906 260.089844 207.242188 260.042969 207.242188 Z M 249.652344 73.011719 L 249.652344 55.027344 C 249.652344 54.785156 249.457031 54.589844 249.214844 54.589844 C 248.96875 54.589844 248.773438 54.785156 248.773438 55.027344 L 248.773438 71.378906 C 248.921875 71.644531 249.070312 71.914062 249.214844 72.179688 C 249.363281 72.457031 249.511719 72.730469 249.652344 73.011719 Z M 167.96875 126.175781 C 169.28125 127.042969 170.277344 127.679688 171.042969 128.242188 L 165.1875 115.46875 C 164.886719 114.816406 164.113281 114.527344 163.460938 114.828125 C 162.808594 115.128906 162.523438 115.902344 162.820312 116.554688 L 166.964844 125.589844 C 167.324219 125.78125 167.664062 125.976562 167.96875 126.175781 Z M 290.320312 133.902344 L 281.386719 133.902344 L 281.386719 139.539062 L 290.320312 139.539062 Z M 301.972656 111.265625 L 302.699219 98.449219 L 299.441406 98.449219 L 299.027344 105.714844 L 298.714844 111.265625 Z M 339.210938 149.269531 L 339.210938 139.953125 L 322.027344 139.953125 L 322.027344 149.269531 Z M 15.671875 136.417969 C 15.914062 136.417969 16.109375 136.222656 16.109375 135.980469 C 16.109375 135.734375 15.914062 135.539062 15.671875 135.539062 L 14.414062 135.539062 C 10.957031 135.539062 8.140625 132.722656 8.140625 129.261719 C 8.140625 125.800781 10.957031 122.988281 14.414062 122.988281 L 15.671875 122.988281 C 15.914062 122.988281 16.109375 122.789062 16.109375 122.546875 C 16.109375 122.304688 15.914062 122.105469 15.671875 122.105469 L 14.414062 122.105469 C 13.539062 122.105469 12.707031 122.273438 11.933594 122.558594 C 9.210938 123.570312 7.261719 126.191406 7.261719 129.261719 C 7.261719 132.335938 9.210938 134.953125 11.933594 135.964844 C 12.707031 136.253906 13.539062 136.417969 14.414062 136.417969 Z M 290.320312 121.414062 L 317.527344 121.414062 C 317.769531 121.414062 317.96875 121.214844 317.96875 120.972656 C 317.96875 120.730469 317.769531 120.53125 317.527344 120.53125 L 290.320312 120.53125 C 290.078125 120.53125 289.878906 120.730469 289.878906 120.972656 C 289.878906 121.214844 290.078125 121.414062 290.320312 121.414062 Z M 290.320312 118.3125 L 317.527344 118.3125 C 317.769531 118.3125 317.96875 118.113281 317.96875 117.871094 C 317.96875 117.628906 317.769531 117.429688 317.527344 117.429688 L 290.320312 117.429688 C 290.078125 117.429688 289.878906 117.628906 289.878906 117.871094 C 289.878906 118.113281 290.078125 118.3125 290.320312 118.3125 Z M 32.289062 156.996094 C 32.289062 156.753906 32.484375 156.554688 32.726562 156.554688 L 322.773438 156.554688 C 323.015625 156.554688 323.210938 156.753906 323.210938 156.996094 C 323.210938 157.230469 323.027344 157.417969 322.796875 157.429688 L 322.96875 160.582031 L 323.128906 163.558594 L 310.914062 165.621094 L 310.90625 165.621094 L 310.351562 159.167969 L 310.199219 157.4375 L 292.570312 157.4375 L 292.921875 163.554688 L 280.707031 165.617188 L 280.703125 165.617188 L 279.964844 157.4375 L 240.160156 157.4375 C 240.992188 158.140625 242.664062 159.84375 244.953125 163.558594 L 187.117188 161.5 L 186.941406 175.34375 L 193.042969 175.34375 C 193.285156 175.34375 193.480469 175.542969 193.480469 175.785156 C 193.480469 176.027344 193.285156 176.226562 193.042969 176.226562 L 171.925781 176.226562 C 171.679688 176.226562 171.484375 176.027344 171.484375 175.785156 C 171.484375 175.542969 171.679688 175.34375 171.925781 175.34375 L 177.277344 175.34375 L 176.203125 161.113281 L 148.613281 160.132812 L 137.65625 159.742188 L 105.511719 158.597656 L 107.078125 157.4375 L 75.539062 157.4375 L 74.800781 165.617188 L 74.792969 165.617188 L 62.582031 163.554688 L 62.933594 157.4375 L 45.300781 157.4375 L 44.59375 165.621094 L 44.585938 165.621094 L 32.375 163.558594 L 32.703125 157.429688 C 32.472656 157.417969 32.289062 157.230469 32.289062 156.996094 Z M 186.238281 161.46875 L 177.089844 161.144531 L 178.15625 175.34375 L 186.0625 175.34375 Z M 297.03125 101.605469 C 297.054688 101.605469 297.078125 101.605469 297.101562 101.601562 C 297.339844 101.566406 297.503906 101.339844 297.46875 101.101562 L 295.449219 87.742188 C 295.414062 87.5 295.1875 87.339844 294.949219 87.371094 C 294.710938 87.40625 294.542969 87.632812 294.582031 87.875 L 296.597656 101.234375 C 296.632812 101.449219 296.820312 101.605469 297.03125 101.605469 Z M 309.878906 101.605469 C 309.890625 101.605469 309.902344 101.605469 309.910156 101.605469 C 310.140625 101.605469 310.332031 101.429688 310.351562 101.199219 L 311.3125 87.839844 C 311.328125 87.609375 311.164062 87.414062 310.941406 87.378906 C 310.929688 87.375 310.917969 87.367188 310.902344 87.367188 C 310.667969 87.347656 310.453125 87.53125 310.433594 87.773438 L 309.472656 101.132812 C 309.453125 101.375 309.636719 101.585938 309.878906 101.605469 Z M 44.972656 137.488281 L 47.6875 137.488281 C 47.867188 137.488281 48.027344 137.597656 48.09375 137.761719 C 48.164062 137.925781 48.125 138.117188 48 138.242188 C 46.804688 139.429688 46.144531 141.011719 46.144531 142.695312 C 46.144531 144.378906 46.804688 145.960938 48 147.148438 C 48.125 147.273438 48.164062 147.460938 48.09375 147.628906 C 48.027344 147.792969 47.867188 147.902344 47.6875 147.902344 L 44.972656 147.902344 C 44.859375 147.902344 44.746094 147.855469 44.664062 147.773438 C 43.300781 146.417969 42.550781 144.617188 42.550781 142.695312 C 42.550781 140.773438 43.300781 138.972656 44.664062 137.617188 C 44.746094 137.535156 44.859375 137.488281 44.972656 137.488281 Z M 45.160156 138.371094 C 44.042969 139.542969 43.429688 141.070312 43.429688 142.695312 C 43.429688 144.320312 44.042969 145.847656 45.160156 147.019531 L 46.71875 147.019531 C 45.773438 145.78125 45.265625 144.277344 45.265625 142.695312 C 45.265625 141.113281 45.773438 139.609375 46.71875 138.371094 Z M 16.019531 147.773438 C 14.65625 146.417969 13.90625 144.617188 13.90625 142.695312 C 13.90625 140.773438 14.65625 138.972656 16.019531 137.617188 C 16.101562 137.535156 16.214844 137.488281 16.332031 137.488281 L 19.046875 137.488281 C 19.222656 137.488281 19.382812 137.597656 19.453125 137.761719 C 19.519531 137.925781 19.480469 138.117188 19.355469 138.242188 C 18.160156 139.429688 17.5 141.011719 17.5 142.695312 C 17.5 144.378906 18.160156 145.960938 19.355469 147.148438 C 19.480469 147.273438 19.519531 147.460938 19.453125 147.628906 C 19.382812 147.792969 19.222656 147.902344 19.046875 147.902344 L 16.332031 147.902344 C 16.214844 147.902344 16.101562 147.855469 16.019531 147.773438 Z M 14.789062 142.695312 C 14.789062 144.320312 15.398438 145.847656 16.515625 147.019531 L 18.074219 147.019531 C 17.132812 145.78125 16.621094 144.277344 16.621094 142.695312 C 16.621094 141.113281 17.132812 139.609375 18.074219 138.371094 L 16.515625 138.371094 C 15.398438 139.542969 14.789062 141.070312 14.789062 142.695312 Z M 63.300781 120.761719 C 63.277344 120.703125 63.265625 120.640625 63.269531 120.582031 C 63.269531 120.578125 63.269531 120.570312 63.269531 120.566406 C 63.269531 120.398438 63.363281 120.253906 63.5 120.179688 C 64.632812 119.003906 65.253906 117.464844 65.253906 115.832031 C 65.253906 114.148438 64.59375 112.566406 63.398438 111.378906 C 63.386719 111.363281 63.371094 111.351562 63.359375 111.335938 C 63.359375 111.332031 63.359375 111.332031 63.359375 111.332031 C 63.359375 111.332031 63.359375 111.332031 63.355469 111.328125 C 63.308594 111.265625 63.277344 111.1875 63.269531 111.105469 C 63.269531 111.074219 63.269531 111.039062 63.273438 111.007812 C 63.273438 111.007812 63.273438 111.007812 63.273438 111.003906 C 63.28125 110.941406 63.304688 110.878906 63.339844 110.828125 C 63.339844 110.824219 63.339844 110.824219 63.339844 110.824219 C 63.367188 110.785156 63.402344 110.75 63.4375 110.71875 C 63.441406 110.71875 63.441406 110.71875 63.441406 110.71875 C 63.441406 110.71875 63.441406 110.71875 63.441406 110.714844 C 63.515625 110.660156 63.605469 110.628906 63.703125 110.625 C 63.703125 110.625 63.707031 110.625 63.707031 110.625 L 97.0625 110.625 C 97.304688 110.625 97.5 110.824219 97.5 111.066406 C 97.5 111.195312 97.445312 111.308594 97.355469 111.386719 C 97.277344 111.460938 97.175781 111.507812 97.0625 111.507812 L 96.136719 111.507812 C 97.078125 112.746094 97.589844 114.246094 97.589844 115.832031 C 97.589844 117.402344 97.085938 118.894531 96.15625 120.128906 L 97.0625 120.128906 C 97.183594 120.128906 97.292969 120.175781 97.371094 120.257812 C 97.453125 120.335938 97.5 120.445312 97.5 120.566406 C 97.5 120.8125 97.304688 121.007812 97.0625 121.007812 L 95.320312 121.007812 C 95.273438 121.027344 95.21875 121.035156 95.164062 121.035156 L 92.449219 121.035156 C 92.398438 121.035156 92.34375 121.027344 92.296875 121.007812 L 66.578125 121.007812 C 66.53125 121.027344 66.476562 121.035156 66.421875 121.035156 L 63.707031 121.035156 C 63.53125 121.035156 63.371094 120.929688 63.300781 120.761719 Z M 93.421875 111.507812 C 94.363281 112.746094 94.875 114.246094 94.875 115.832031 C 94.875 117.402344 94.371094 118.894531 93.441406 120.128906 L 95.007812 120.128906 C 96.105469 118.957031 96.707031 117.441406 96.707031 115.832031 C 96.707031 114.207031 96.097656 112.679688 94.980469 111.507812 Z M 67.394531 111.507812 C 68.335938 112.746094 68.847656 114.246094 68.847656 115.832031 C 68.847656 117.402344 68.34375 118.894531 67.414062 120.128906 L 92.292969 120.128906 C 93.394531 118.957031 93.996094 117.441406 93.996094 115.832031 C 93.996094 114.207031 93.382812 112.679688 92.265625 111.507812 Z M 64.699219 120.128906 L 66.265625 120.128906 C 67.363281 118.957031 67.964844 117.441406 67.964844 115.832031 C 67.964844 114.207031 67.355469 112.679688 66.238281 111.507812 L 64.679688 111.507812 C 65.621094 112.746094 66.132812 114.246094 66.132812 115.832031 C 66.132812 117.402344 65.628906 118.894531 64.699219 120.128906 Z M 42.257812 135.839844 C 42.378906 135.890625 42.503906 135.933594 42.628906 135.980469 C 43.394531 136.257812 44.214844 136.417969 45.074219 136.417969 L 46.332031 136.417969 C 46.574219 136.417969 46.773438 136.222656 46.773438 135.980469 C 46.773438 135.929688 46.757812 135.882812 46.746094 135.839844 C 46.683594 135.664062 46.527344 135.539062 46.332031 135.539062 L 45.074219 135.539062 C 41.617188 135.539062 38.804688 132.722656 38.804688 129.261719 C 38.804688 125.800781 41.617188 122.988281 45.074219 122.988281 L 46.332031 122.988281 C 46.574219 122.988281 46.773438 122.789062 46.773438 122.546875 C 46.773438 122.304688 46.574219 122.105469 46.332031 122.105469 L 45.074219 122.105469 C 44.214844 122.105469 43.394531 122.265625 42.628906 122.546875 C 39.890625 123.550781 37.921875 126.175781 37.921875 129.261719 C 37.921875 132.207031 39.710938 134.742188 42.257812 135.839844 Z M 175.316406 32.453125 C 176.0625 32.453125 176.664062 31.453125 176.664062 30.226562 C 176.664062 28.996094 176.0625 28 175.316406 28 C 174.574219 28 173.972656 28.996094 173.972656 30.226562 C 173.972656 31.453125 174.574219 32.453125 175.316406 32.453125 Z M 187.589844 34.15625 C 188.332031 34.15625 188.9375 33.160156 188.9375 31.929688 C 188.9375 30.699219 188.332031 29.703125 187.589844 29.703125 C 186.847656 29.703125 186.246094 30.699219 186.246094 31.929688 C 186.246094 33.160156 186.847656 34.15625 187.589844 34.15625 Z M 102.480469 127.246094 C 102.515625 127.269531 102.554688 127.269531 102.59375 127.28125 C 102.636719 127.292969 102.675781 127.316406 102.71875 127.316406 C 102.769531 127.316406 102.820312 127.296875 102.867188 127.277344 C 102.953125 127.246094 103.035156 127.199219 103.085938 127.113281 L 104.558594 124.816406 C 110.300781 115.84375 121.605469 112.296875 131.4375 116.375 L 133.402344 117.191406 L 137.085938 118.71875 L 136.4375 119.777344 C 136.4375 119.777344 136.875 120.082031 137.414062 120.667969 C 137.492188 120.753906 137.574219 120.847656 137.65625 120.945312 C 138.292969 121.707031 138.996094 122.835938 139.28125 124.296875 C 139.296875 124.371094 139.316406 124.445312 139.328125 124.519531 L 143.132812 126.042969 L 143.136719 126.046875 L 144.304688 108.59375 L 145.28125 94.082031 C 146.074219 88.269531 146.882812 81.136719 146.882812 76.15625 C 146.882812 74.25 146.679688 72.375 146.359375 70.59375 C 145.59375 66.335938 144.148438 62.621094 143.136719 60.367188 C 142.496094 58.945312 142.027344 58.101562 142.011719 58.074219 C 141.890625 57.863281 141.621094 57.789062 141.414062 57.90625 C 141.199219 58.027344 141.125 58.296875 141.246094 58.507812 C 141.265625 58.542969 142.140625 60.125 143.136719 62.625 C 143.785156 64.261719 144.480469 66.292969 145.027344 68.554688 C 145.59375 70.90625 146 73.503906 146 76.15625 C 146 84.082031 143.933594 97.535156 143.167969 102.269531 L 143.136719 102.179688 L 137.65625 86.292969 L 137.597656 86.121094 L 136.609375 83.261719 C 136.53125 83.03125 136.28125 82.910156 136.050781 82.988281 C 135.820312 83.070312 135.699219 83.320312 135.777344 83.550781 L 137.65625 88.992188 L 137.738281 89.226562 L 142.867188 104.097656 C 142.992188 104.46875 143.078125 104.847656 143.136719 105.226562 C 143.222656 105.832031 143.222656 106.4375 143.136719 107.039062 C 143.023438 107.796875 142.785156 108.539062 142.398438 109.222656 L 138.914062 115.375 L 138.570312 115.984375 C 138.503906 116.101562 138.5 116.230469 138.542969 116.347656 L 137.65625 117.789062 L 137.550781 117.957031 L 136.4375 117.496094 L 128.320312 109.90625 C 128.140625 109.742188 127.863281 109.753906 127.695312 109.929688 C 127.53125 110.105469 127.539062 110.382812 127.71875 110.550781 L 134.121094 116.535156 L 131.777344 115.5625 C 130.691406 115.113281 129.589844 114.769531 128.476562 114.496094 C 119.117188 112.183594 109.15625 116 103.816406 124.34375 L 103.558594 124.742188 L 102.542969 126.332031 L 102.347656 126.640625 C 102.214844 126.84375 102.273438 127.117188 102.480469 127.246094 Z M 198.070312 307.519531 C 198.070312 307.757812 198.257812 307.949219 198.496094 307.957031 C 198.5 307.957031 198.503906 307.960938 198.507812 307.960938 L 238.867188 307.960938 C 239.109375 307.960938 239.308594 307.761719 239.308594 307.519531 C 239.308594 307.277344 239.109375 307.078125 238.867188 307.078125 L 198.507812 307.078125 C 198.265625 307.078125 198.070312 307.277344 198.070312 307.519531 Z M 209.757812 129.34375 C 209.578125 129.1875 209.304688 129.207031 209.144531 129.386719 C 209.140625 129.390625 209.140625 129.390625 209.136719 129.394531 C 208.980469 129.578125 209.003906 129.855469 209.1875 130.011719 L 213.121094 133.367188 C 213.203125 133.4375 213.304688 133.472656 213.40625 133.472656 C 213.53125 133.472656 213.652344 133.421875 213.742188 133.320312 C 213.898438 133.132812 213.875 132.855469 213.691406 132.699219 L 211.410156 130.75 Z M 198.476562 84.398438 C 198.453125 84.640625 198.632812 84.855469 198.875 84.878906 L 223.539062 87.167969 L 224.140625 87.226562 C 224.214844 88.863281 224.441406 90.644531 224.878906 92.566406 C 224.910156 92.707031 225.007812 92.816406 225.132812 92.871094 C 224.902344 93.894531 224.71875 94.96875 224.5625 96.0625 C 224.285156 97.945312 224.113281 99.914062 224.125 101.945312 C 224.167969 109.777344 224.125 122.28125 224.125 122.40625 C 224.125 122.472656 224.140625 122.535156 224.164062 122.589844 L 223.097656 123.066406 C 221.765625 123.660156 220.734375 124.730469 220.195312 126.082031 L 219.332031 128.238281 C 219.289062 128.34375 219.292969 128.457031 219.328125 128.554688 C 219.371094 128.667969 219.453125 128.761719 219.574219 128.8125 C 219.628906 128.832031 219.683594 128.84375 219.738281 128.84375 C 219.914062 128.84375 220.078125 128.738281 220.144531 128.566406 L 220.292969 128.195312 L 221.011719 126.40625 C 221.453125 125.296875 222.296875 124.417969 223.378906 123.914062 C 223.40625 123.902344 223.429688 123.882812 223.453125 123.871094 L 227.550781 122.050781 L 229.914062 121 L 234.605469 118.910156 L 235.128906 118.679688 C 236.035156 118.277344 236.984375 118.011719 237.949219 117.863281 C 240.492188 117.472656 243.128906 117.953125 245.382812 119.308594 L 248.773438 121.347656 L 249.214844 121.613281 L 249.652344 121.875 L 251.164062 122.785156 C 251.375 122.90625 251.644531 122.84375 251.769531 122.632812 C 251.894531 122.425781 251.824219 122.15625 251.617188 122.03125 L 249.652344 120.847656 L 249.214844 120.585938 L 248.773438 120.320312 L 245.835938 118.554688 C 244.382812 117.679688 242.777344 117.160156 241.140625 116.953125 C 238.996094 116.6875 236.796875 116.972656 234.769531 117.875 L 230.164062 119.925781 L 227.445312 121.132812 L 225.003906 122.21875 C 225.011719 120.609375 225.042969 109.246094 225.003906 101.941406 C 225 101.367188 225.015625 100.796875 225.039062 100.230469 C 225.527344 88.414062 231.515625 78.976562 231.578125 78.878906 C 231.707031 78.675781 231.648438 78.402344 231.445312 78.273438 C 231.242188 78.136719 230.96875 78.199219 230.839844 78.402344 C 230.789062 78.476562 227.460938 83.710938 225.511719 91.285156 C 223.605469 81.296875 227.726562 75.390625 228.46875 74.425781 C 228.535156 74.335938 228.585938 74.273438 228.589844 74.269531 C 228.75 74.085938 228.730469 73.808594 228.546875 73.648438 C 228.363281 73.488281 228.085938 73.511719 227.925781 73.691406 C 227.851562 73.78125 227.222656 74.527344 226.5 75.882812 C 225.398438 77.957031 224.070312 81.464844 224.117188 86.339844 L 223.433594 86.277344 L 198.953125 84.003906 C 198.722656 83.984375 198.5 84.15625 198.476562 84.398438 Z M 205.601562 74.34375 C 205.675781 74.394531 205.761719 74.421875 205.851562 74.421875 C 205.886719 74.421875 205.925781 74.417969 205.964844 74.40625 C 206.085938 74.375 206.191406 74.289062 206.246094 74.171875 L 215.460938 55.21875 L 218.40625 49.164062 C 218.511719 48.945312 218.421875 48.679688 218.203125 48.574219 C 217.988281 48.46875 217.722656 48.558594 217.617188 48.777344 L 214.484375 55.21875 L 205.679688 73.332031 L 196.988281 67.402344 C 196.792969 67.269531 196.515625 67.316406 196.378906 67.519531 C 196.242188 67.71875 196.292969 67.996094 196.496094 68.132812 Z M 165.535156 67.273438 C 165.597656 67.273438 165.660156 67.261719 165.714844 67.234375 L 175.910156 62.679688 C 175.953125 62.660156 175.984375 62.632812 176.019531 62.605469 C 176.160156 62.480469 176.214844 62.277344 176.132812 62.097656 C 176.066406 61.945312 175.921875 61.859375 175.765625 61.84375 C 175.695312 61.839844 175.621094 61.84375 175.550781 61.875 L 166.347656 65.988281 L 169.359375 58.453125 C 169.449219 58.230469 169.339844 57.972656 169.117188 57.882812 C 168.890625 57.792969 168.632812 57.902344 168.542969 58.128906 L 165.128906 66.671875 C 165.0625 66.835938 165.101562 67.027344 165.230469 67.152344 C 165.316406 67.234375 165.425781 67.273438 165.535156 67.273438 Z M 178.53125 136.535156 C 178.492188 136.777344 178.652344 137.003906 178.894531 137.042969 C 178.917969 137.046875 178.941406 137.046875 178.964844 137.046875 C 179.175781 137.046875 179.363281 136.894531 179.398438 136.679688 L 187.753906 85.941406 C 187.941406 84.796875 187.84375 83.617188 187.464844 82.523438 C 186.980469 81.128906 187.019531 79.609375 187.574219 78.242188 L 188.351562 76.320312 C 188.425781 76.140625 188.363281 75.941406 188.222656 75.824219 C 188.1875 75.792969 188.152344 75.765625 188.109375 75.75 C 187.949219 75.683594 187.777344 75.722656 187.65625 75.828125 C 187.605469 75.871094 187.5625 75.925781 187.539062 75.992188 L 186.757812 77.910156 C 186.125 79.476562 186.078125 81.21875 186.632812 82.8125 C 186.964844 83.765625 187.050781 84.800781 186.886719 85.796875 Z M 150.023438 79.597656 L 152.386719 79.824219 L 174.644531 81.980469 C 174.660156 81.980469 174.671875 81.980469 174.6875 81.980469 C 174.910156 81.980469 175.101562 81.8125 175.125 81.582031 C 175.148438 81.339844 174.972656 81.125 174.730469 81.101562 L 151.769531 78.882812 L 150.105469 78.71875 C 149.875 78.710938 149.648438 78.875 149.625 79.117188 C 149.601562 79.359375 149.777344 79.574219 150.023438 79.597656 Z M 173.25 35.59375 L 175.480469 34.773438 L 173.019531 39.566406 C 172.59375 40.394531 172.542969 41.363281 172.878906 42.226562 C 173.15625 42.953125 173.675781 43.523438 174.316406 43.886719 C 174.78125 44.148438 175.308594 44.304688 175.867188 44.3125 L 178.414062 44.347656 L 178.679688 44.351562 L 182.320312 44.402344 C 182.332031 44.402344 182.34375 44.402344 182.355469 44.402344 C 182.527344 44.402344 182.699219 44.378906 182.867188 44.347656 C 183.632812 44.191406 184.308594 43.691406 184.664062 42.976562 C 185.132812 42.039062 184.992188 40.917969 184.304688 40.128906 L 183.101562 38.738281 C 182.941406 38.554688 182.664062 38.535156 182.480469 38.695312 C 182.296875 38.855469 182.277344 39.132812 182.4375 39.316406 L 183.640625 40.703125 C 184.09375 41.226562 184.1875 41.964844 183.878906 42.582031 C 183.585938 43.164062 182.984375 43.515625 182.332031 43.523438 L 175.878906 43.429688 C 174.90625 43.417969 174.050781 42.820312 173.699219 41.910156 C 173.453125 41.277344 173.492188 40.574219 173.800781 39.96875 L 178.96875 29.902344 C 179.082031 29.6875 178.996094 29.421875 178.777344 29.3125 C 178.5625 29.199219 178.296875 29.285156 178.1875 29.5 L 176.074219 33.613281 L 172.949219 34.765625 C 172.71875 34.851562 172.601562 35.105469 172.6875 35.332031 C 172.769531 35.558594 173.027344 35.675781 173.25 35.59375 Z M 189.492188 37.269531 C 189.511719 37.273438 189.53125 37.273438 189.550781 37.273438 C 189.765625 37.273438 189.957031 37.113281 189.984375 36.890625 C 190.015625 36.648438 189.847656 36.429688 189.605469 36.394531 C 186.1875 35.945312 184.648438 33.78125 184.632812 33.757812 C 184.496094 33.558594 184.21875 33.511719 184.019531 33.648438 C 183.820312 33.785156 183.769531 34.058594 183.910156 34.257812 C 183.976562 34.359375 185.667969 36.765625 189.492188 37.269531 Z M 176.285156 54.007812 C 176.296875 54.011719 176.335938 54.019531 176.386719 54.03125 C 176.878906 54.132812 179.125 54.589844 180.464844 54.589844 C 180.707031 54.589844 180.90625 54.394531 180.90625 54.148438 C 180.90625 53.90625 180.707031 53.710938 180.464844 53.710938 C 179.078125 53.710938 176.5 53.152344 176.472656 53.148438 C 176.46875 53.148438 176.460938 53.148438 176.457031 53.148438 C 176.230469 53.109375 176 53.253906 175.949219 53.484375 C 175.898438 53.722656 176.050781 53.957031 176.285156 54.007812 Z M 182.859375 52.363281 C 182.863281 52.363281 182.867188 52.363281 182.871094 52.363281 C 183.109375 52.363281 183.304688 52.175781 183.3125 51.9375 C 183.320312 51.691406 183.128906 51.488281 182.886719 51.480469 C 181.039062 51.425781 178.542969 50.8125 176.683594 50.273438 C 175.210938 49.851562 174.140625 49.476562 174.117188 49.46875 C 173.894531 49.386719 173.636719 49.507812 173.558594 49.738281 C 173.476562 49.964844 173.597656 50.21875 173.828125 50.296875 C 173.929688 50.332031 175.074219 50.734375 176.613281 51.171875 C 178.492188 51.710938 180.964844 52.304688 182.859375 52.363281 Z M 189.414062 60.511719 L 189.238281 60.570312 C 185.679688 61.738281 181.863281 61.957031 178.191406 61.203125 C 177.96875 61.15625 177.746094 61.296875 177.683594 61.519531 C 177.683594 61.527344 177.675781 61.535156 177.671875 61.542969 C 177.625 61.78125 177.777344 62.015625 178.015625 62.0625 C 179.503906 62.371094 181.015625 62.523438 182.523438 62.523438 C 183.148438 62.523438 183.769531 62.492188 184.394531 62.441406 C 186.128906 62.296875 187.847656 61.953125 189.511719 61.40625 L 189.683594 61.351562 C 189.917969 61.277344 190.042969 61.027344 189.96875 60.796875 C 189.894531 60.566406 189.644531 60.4375 189.414062 60.511719 Z M 214.84375 40.601562 C 214.015625 41.035156 212.988281 41.03125 212.152344 40.484375 C 211.953125 40.351562 211.679688 40.40625 211.542969 40.609375 C 211.414062 40.816406 211.46875 41.085938 211.671875 41.222656 C 212.269531 41.609375 212.941406 41.796875 213.605469 41.796875 C 213.90625 41.796875 214.203125 41.757812 214.488281 41.683594 C 215.320312 41.472656 216.074219 40.964844 216.582031 40.191406 C 217.546875 38.714844 217.253906 36.78125 215.984375 35.632812 C 215.847656 35.507812 215.710938 35.386719 215.550781 35.28125 C 215.351562 35.148438 215.078125 35.207031 214.945312 35.410156 C 214.8125 35.613281 214.867188 35.886719 215.070312 36.019531 C 215.363281 36.210938 215.601562 36.449219 215.789062 36.71875 C 216.398438 37.589844 216.457031 38.773438 215.84375 39.710938 C 215.585938 40.105469 215.234375 40.398438 214.84375 40.601562 Z M 208.230469 33.617188 C 208.332031 33.617188 208.433594 33.582031 208.515625 33.511719 L 209.472656 32.691406 C 211.4375 31.003906 214.152344 30.5625 216.550781 31.539062 C 216.605469 31.5625 216.660156 31.570312 216.714844 31.570312 C 216.882812 31.570312 217.035156 31.476562 217.109375 31.324219 C 217.113281 31.3125 217.121094 31.308594 217.125 31.296875 C 217.21875 31.074219 217.109375 30.816406 216.882812 30.722656 C 216.878906 30.722656 216.875 30.722656 216.871094 30.71875 C 214.164062 29.625 211.113281 30.125 208.898438 32.023438 L 207.945312 32.839844 C 207.859375 32.914062 207.8125 33.011719 207.800781 33.117188 C 207.78125 33.234375 207.8125 33.363281 207.898438 33.460938 C 207.984375 33.5625 208.105469 33.617188 208.230469 33.617188 Z M 201.851562 180.546875 C 201.617188 180.46875 201.371094 180.59375 201.292969 180.824219 L 199.234375 186.917969 L 198.765625 188.316406 L 198.496094 189.109375 C 198.417969 189.339844 198.542969 189.589844 198.773438 189.664062 C 198.820312 189.679688 198.867188 189.6875 198.914062 189.6875 C 198.96875 189.6875 199.011719 189.660156 199.0625 189.640625 C 199.179688 189.597656 199.285156 189.519531 199.332031 189.390625 L 200.164062 186.917969 L 202.128906 181.105469 C 202.207031 180.875 202.082031 180.625 201.851562 180.546875 Z M 178.070312 177.027344 C 177.828125 177.046875 177.648438 177.257812 177.667969 177.5 L 178.414062 186.917969 L 178.523438 188.316406 L 178.527344 188.351562 C 178.542969 188.582031 178.734375 188.757812 178.964844 188.757812 C 178.976562 188.757812 178.988281 188.753906 179 188.753906 C 179.230469 188.738281 179.398438 188.542969 179.398438 188.316406 C 179.398438 188.304688 179.402344 188.292969 179.402344 188.28125 L 179.292969 186.917969 L 178.542969 177.429688 C 178.523438 177.1875 178.289062 177.007812 178.070312 177.027344 Z M 118.628906 307.078125 L 103.996094 307.078125 C 103.753906 307.078125 103.558594 307.277344 103.558594 307.519531 C 103.558594 307.761719 103.753906 307.960938 103.996094 307.960938 L 143.132812 307.960938 C 143.378906 307.960938 143.574219 307.761719 143.574219 307.519531 C 143.574219 307.277344 143.378906 307.078125 143.132812 307.078125 Z M 153.285156 188.316406 L 152.066406 193.339844 C 152.027344 193.511719 152.09375 193.679688 152.222656 193.785156 C 152.273438 193.824219 152.328125 193.855469 152.390625 193.871094 C 152.425781 193.878906 152.460938 193.882812 152.496094 193.882812 C 152.695312 193.882812 152.875 193.75 152.921875 193.546875 L 152.980469 193.316406 L 154.140625 188.523438 C 154.195312 188.289062 154.050781 188.050781 153.816406 187.992188 C 153.578125 187.941406 153.34375 188.078125 153.285156 188.316406 Z M 201.777344 195.246094 C 201.816406 195.335938 201.878906 195.417969 201.976562 195.464844 C 202.023438 195.488281 202.074219 195.496094 202.121094 195.5 C 202.140625 195.503906 202.15625 195.515625 202.175781 195.515625 C 202.335938 195.515625 202.488281 195.425781 202.566406 195.273438 L 206.800781 186.917969 L 209.398438 181.785156 C 209.507812 181.566406 209.421875 181.300781 209.207031 181.191406 C 208.992188 181.085938 208.726562 181.167969 208.613281 181.386719 L 205.8125 186.917969 L 201.78125 194.875 C 201.722656 194.996094 201.726562 195.128906 201.777344 195.246094 Z M 143.039062 197.140625 L 141.929688 192.039062 C 141.535156 190.226562 140.882812 188.503906 140.007812 186.917969 C 139.351562 185.726562 138.554688 184.617188 137.65625 183.59375 C 136.597656 182.390625 135.398438 181.304688 134.042969 180.382812 L 126.710938 175.421875 C 126.511719 175.285156 126.238281 175.335938 126.101562 175.539062 C 125.964844 175.738281 126.019531 176.011719 126.21875 176.148438 L 133.546875 181.113281 C 135.132812 182.1875 136.503906 183.496094 137.65625 184.96875 C 138.140625 185.589844 138.578125 186.242188 138.976562 186.917969 C 139.9375 188.550781 140.65625 190.332031 141.070312 192.226562 L 142.175781 197.300781 L 142.671875 199.582031 L 142.246094 202.425781 C 142.210938 202.667969 142.375 202.890625 142.617188 202.925781 C 142.636719 202.929688 142.660156 202.933594 142.683594 202.933594 C 142.894531 202.933594 143.082031 202.777344 143.117188 202.558594 L 143.132812 202.441406 L 143.554688 199.640625 C 143.554688 199.636719 143.554688 199.632812 143.554688 199.628906 L 143.585938 199.441406 L 143.90625 197.300781 L 145.003906 189.988281 C 145.160156 188.960938 145.179688 187.933594 145.105469 186.917969 C 144.921875 184.507812 144.109375 182.179688 142.691406 180.160156 L 140.625 177.210938 C 140.484375 177.015625 140.207031 176.964844 140.011719 177.105469 C 139.8125 177.246094 139.765625 177.519531 139.90625 177.71875 L 141.972656 180.667969 C 143.28125 182.535156 144.039062 184.6875 144.222656 186.917969 C 144.300781 187.890625 144.28125 188.871094 144.132812 189.855469 Z M 173.0625 142.238281 C 173.144531 142.332031 173.257812 142.394531 173.382812 142.394531 C 173.460938 142.394531 173.539062 142.375 173.609375 142.332031 C 173.679688 142.289062 173.726562 142.226562 173.761719 142.15625 C 173.832031 142.027344 173.839844 141.863281 173.757812 141.726562 L 168.15625 132.519531 C 167.832031 131.988281 167.332031 131.585938 166.746094 131.386719 L 161.488281 129.59375 C 161.257812 129.515625 161.007812 129.636719 160.929688 129.867188 C 160.851562 130.097656 160.972656 130.347656 161.203125 130.425781 L 166.460938 132.21875 C 166.855469 132.351562 167.1875 132.621094 167.40625 132.976562 L 173.003906 142.183594 C 173.019531 142.207031 173.042969 142.21875 173.0625 142.238281 Z M 144.050781 136.097656 C 144.121094 136.136719 144.195312 136.15625 144.269531 136.15625 C 144.421875 136.15625 144.570312 136.074219 144.648438 135.933594 L 148.175781 129.714844 L 148.613281 128.941406 L 148.996094 128.265625 C 149.105469 128.078125 149.050781 127.851562 148.894531 127.71875 C 148.871094 127.703125 148.855469 127.679688 148.832031 127.667969 C 148.761719 127.625 148.6875 127.613281 148.613281 127.613281 C 148.460938 127.617188 148.3125 127.6875 148.234375 127.832031 L 148.175781 127.933594 L 147.84375 128.519531 L 143.886719 135.496094 C 143.765625 135.710938 143.839844 135.980469 144.050781 136.097656 Z M 167.988281 145.574219 C 168.074219 145.675781 168.199219 145.726562 168.324219 145.726562 C 168.328125 145.726562 168.332031 145.722656 168.339844 145.722656 C 168.433594 145.71875 168.53125 145.6875 168.609375 145.617188 C 168.792969 145.460938 168.8125 145.183594 168.65625 145 L 168.550781 144.875 L 168.386719 144.683594 L 166.984375 143.058594 L 166.496094 142.488281 C 166.292969 142.257812 166.105469 142.011719 165.925781 141.761719 L 163.226562 137.992188 C 162.59375 137.113281 161.671875 136.472656 160.625 136.191406 L 157.265625 135.289062 C 157.03125 135.234375 156.792969 135.367188 156.726562 135.601562 C 156.664062 135.835938 156.804688 136.078125 157.039062 136.140625 L 160.394531 137.042969 C 161.246094 137.269531 161.996094 137.789062 162.511719 138.503906 L 165.210938 142.277344 C 165.402344 142.546875 165.609375 142.808594 165.824219 143.058594 C 165.824219 143.058594 165.828125 143.0625 165.828125 143.0625 L 167.222656 144.683594 Z M 152.703125 144.898438 C 152.492188 144.785156 152.222656 144.863281 152.109375 145.078125 C 151.992188 145.292969 152.074219 145.558594 152.289062 145.675781 L 153.992188 146.578125 L 154.722656 146.96875 C 154.785156 147.003906 154.859375 147.019531 154.929688 147.019531 C 155.078125 147.019531 155.214844 146.9375 155.296875 146.804688 C 155.304688 146.796875 155.3125 146.792969 155.316406 146.785156 C 155.429688 146.570312 155.347656 146.304688 155.132812 146.191406 Z M 158.753906 144.222656 C 158.832031 144.289062 159.019531 144.457031 159.28125 144.683594 C 160.445312 145.6875 163.191406 147.941406 165.398438 148.882812 C 165.550781 148.949219 165.707031 149.011719 165.855469 149.066406 C 165.90625 149.082031 165.953125 149.089844 166.003906 149.089844 C 166.183594 149.089844 166.355469 148.976562 166.417969 148.796875 C 166.429688 148.761719 166.429688 148.726562 166.433594 148.691406 C 166.453125 148.496094 166.34375 148.304688 166.148438 148.234375 C 164.421875 147.628906 162.101562 145.867188 160.65625 144.683594 C 159.859375 144.03125 159.328125 143.550781 159.3125 143.539062 C 159.289062 143.519531 159.265625 143.5 159.238281 143.484375 L 158.792969 143.222656 L 154.890625 140.945312 C 154.679688 140.820312 154.410156 140.890625 154.289062 141.101562 C 154.167969 141.3125 154.238281 141.582031 154.449219 141.703125 L 157.304688 143.371094 Z M 189.136719 137.957031 L 180.1875 137.957031 C 180.007812 137.957031 179.84375 138.070312 179.777344 138.242188 L 179.699219 138.449219 C 179.160156 139.882812 178.425781 141.210938 177.558594 142.441406 L 177.417969 142.132812 C 176.742188 142.933594 175.660156 142.847656 174.75 142.558594 L 174.976562 143.058594 L 175.71875 144.675781 C 175.71875 144.679688 175.714844 144.679688 175.714844 144.683594 C 173.914062 146.523438 171.726562 147.980469 169.269531 148.917969 C 169.113281 148.976562 169.015625 149.117188 168.996094 149.269531 C 168.996094 149.28125 168.988281 149.292969 168.988281 149.304688 C 168.984375 149.363281 168.992188 149.425781 169.015625 149.488281 C 169.082031 149.664062 169.25 149.769531 169.425781 149.769531 C 169.476562 149.769531 169.53125 149.761719 169.582031 149.742188 C 169.898438 149.621094 170.199219 149.46875 170.507812 149.328125 C 170.53125 149.320312 170.550781 149.3125 170.570312 149.300781 C 170.59375 149.292969 170.617188 149.28125 170.640625 149.269531 C 172.683594 148.34375 174.539062 147.085938 176.113281 145.53125 C 176.386719 145.261719 176.636719 144.96875 176.894531 144.683594 C 177.277344 144.257812 177.636719 143.816406 177.980469 143.359375 C 178.050781 143.261719 178.125 143.160156 178.199219 143.058594 C 179.125 141.761719 179.914062 140.355469 180.492188 138.839844 L 189.546875 138.839844 C 189.546875 138.835938 189.546875 138.835938 189.554688 138.839844 L 196.738281 138.839844 C 196.742188 138.839844 196.746094 138.839844 196.746094 138.839844 L 203.566406 138.839844 C 203.570312 138.839844 203.578125 138.839844 203.582031 138.839844 L 207.378906 138.839844 C 207.621094 138.839844 207.816406 138.640625 207.816406 138.398438 C 207.816406 138.15625 207.621094 137.957031 207.378906 137.957031 L 205.210938 137.957031 L 209.695312 135.359375 C 209.902344 135.238281 209.976562 134.96875 209.851562 134.757812 C 209.730469 134.550781 209.460938 134.476562 209.25 134.601562 L 203.457031 137.957031 L 198.015625 137.957031 L 203.84375 133.378906 C 204.035156 133.230469 204.070312 132.953125 203.917969 132.761719 C 203.769531 132.570312 203.492188 132.539062 203.300781 132.6875 L 196.589844 137.957031 L 190.019531 137.957031 L 190.101562 136.746094 C 190.152344 135.96875 190.539062 135.253906 191.160156 134.78125 L 197.007812 130.359375 C 197.199219 130.214844 197.238281 129.9375 197.09375 129.742188 C 196.945312 129.550781 196.671875 129.511719 196.476562 129.660156 L 190.628906 134.078125 C 189.804688 134.703125 189.289062 135.652344 189.222656 136.6875 Z M 342.804688 337.632812 C 342.804688 337.875 342.609375 338.070312 342.367188 338.070312 L 15.671875 337.734375 C 15.429688 337.734375 15.230469 337.535156 15.230469 337.292969 C 15.230469 337.050781 15.429688 336.855469 15.671875 336.855469 L 22.941406 336.859375 L 29.652344 336.867188 L 53.144531 336.890625 L 59.855469 336.898438 L 77.355469 336.917969 L 77.355469 334.1875 C 78.582031 329.179688 82.640625 325.363281 87.710938 324.445312 L 103.4375 321.605469 L 107.671875 318.308594 L 109.976562 316.515625 C 111.03125 315.691406 112.207031 315.101562 113.4375 314.730469 C 115.121094 314.222656 116.90625 314.136719 118.628906 314.488281 C 119.941406 314.757812 121.21875 315.273438 122.382812 316.046875 L 130.761719 321.605469 L 137.65625 321.101562 L 143.566406 320.667969 L 143.648438 322.535156 L 144.253906 336.988281 L 148.613281 336.992188 L 203.242188 337.046875 L 202.667969 330.644531 C 202.265625 326.125 203.269531 321.59375 205.539062 317.667969 L 205.644531 317.691406 L 214.234375 319.53125 L 217.503906 316.824219 C 218.050781 316.371094 218.628906 315.972656 219.226562 315.621094 C 220.359375 314.949219 221.570312 314.457031 222.816406 314.148438 C 224.957031 313.613281 227.199219 313.609375 229.347656 314.148438 C 229.554688 314.199219 229.757812 314.25 229.960938 314.3125 C 230.039062 314.332031 230.113281 314.355469 230.1875 314.382812 C 231.558594 314.820312 232.878906 315.480469 234.085938 316.375 L 238.347656 319.53125 L 243.246094 321.398438 C 245.570312 322.285156 247.597656 323.695312 249.214844 325.46875 C 251.316406 327.785156 252.714844 330.722656 253.132812 333.941406 L 253.539062 337.097656 L 260.171875 337.105469 L 295.667969 337.144531 L 302.367188 337.148438 L 325.875 337.171875 L 332.574219 337.179688 L 342.367188 337.191406 C 342.609375 337.191406 342.804688 337.386719 342.804688 337.632812 Z M 121.839844 336.964844 L 120.980469 333.101562 L 118.628906 336.628906 L 118.410156 336.960938 L 118.628906 336.960938 Z M 218.351562 337.0625 L 215.683594 332.167969 L 215.386719 337.058594 Z M 218.351562 337.0625 " fill-opacity="1" fill-rule="nonzero"/></g><path fill="#1f52bc" d="M 111.246094 317.828125 L 108.757812 326.488281 L 104.839844 327.480469 L 105.246094 324.851562 L 102.921875 326.660156 L 100.714844 324.496094 L 102.90625 322.652344 L 100.074219 323.605469 L 98.957031 322.027344 L 109.988281 317.433594 Z M 228.953125 316.570312 L 230.851562 322.535156 L 232.808594 322.214844 L 232.847656 320.847656 L 234.488281 322.042969 L 236.597656 321.238281 L 235.074219 320.039062 L 237.25 320.871094 L 238.382812 320.222656 L 230.035156 316.53125 Z M 228.953125 316.570312 " fill-opacity="1" fill-rule="nonzero"/></svg>