<svg xmlns="http://www.w3.org/2000/svg" xmlns:xlink="http://www.w3.org/1999/xlink" width="500" zoomAndPan="magnify" viewBox="0 0 375 374.999991" height="500" preserveAspectRatio="xMidYMid meet" version="1.0"><defs><clipPath id="2af3f74143"><path d="M 51.09375 0 L 324.09375 0 L 324.09375 375 L 51.09375 375 Z M 51.09375 0 " clip-rule="nonzero"/></clipPath></defs><g clip-path="url(#2af3f74143)"><path fill="currentColor" d="M 238.765625 0 C 135.355469 0 51.136719 84.160156 51.136719 187.5 C 51.136719 290.839844 135.355469 375 238.765625 375 C 265.449219 375 290.871094 369.339844 313.824219 359.285156 C 320.054688 356.589844 324.050781 350.464844 324.050781 343.671875 C 324.050781 336.914062 320.054688 330.753906 313.824219 328.058594 C 259.652344 304.386719 221.707031 250.523438 221.707031 187.5 C 221.707031 124.476562 259.652344 70.613281 313.824219 46.941406 C 320.054688 44.246094 324.050781 38.085938 324.050781 31.328125 C 324.050781 24.535156 320.054688 18.410156 313.824219 15.714844 C 290.871094 5.660156 265.449219 0 238.765625 0 Z M 238.765625 34.089844 C 248.09375 34.089844 257.089844 35.355469 265.949219 36.953125 C 218.976562 71.046875 187.59375 125.175781 187.59375 187.5 C 187.59375 249.824219 218.976562 303.953125 265.949219 338.046875 C 257.089844 339.644531 248.09375 340.910156 238.765625 340.910156 C 153.777344 340.910156 85.25 272.425781 85.25 187.5 C 85.25 102.574219 153.777344 34.089844 238.765625 34.089844 Z M 238.765625 34.089844 " fill-opacity="1" fill-rule="nonzero"/></g></svg>