<svg xmlns="http://www.w3.org/2000/svg" xmlns:xlink="http://www.w3.org/1999/xlink" width="500" zoomAndPan="magnify" viewBox="0 0 375 374.999991" height="500" preserveAspectRatio="xMidYMid meet" version="1.0"><path fill="currentColor" d="M 187.5 0 C 84.140625 0 0 84.140625 0 187.5 C 0 290.859375 84.140625 375 187.5 375 C 290.859375 375 375 290.859375 375 187.5 C 375 84.140625 290.859375 0 187.5 0 Z M 187.5 32.609375 C 273.238281 32.609375 342.390625 101.761719 342.390625 187.5 C 342.390625 273.238281 273.238281 342.390625 187.5 342.390625 C 101.761719 342.390625 32.609375 273.238281 32.609375 187.5 C 32.609375 101.761719 101.761719 32.609375 187.5 32.609375 Z M 187.5 154.890625 C 169.523438 154.890625 154.890625 169.523438 154.890625 187.5 C 154.890625 205.476562 169.523438 220.109375 187.5 220.109375 C 205.476562 220.109375 220.109375 205.476562 220.109375 187.5 C 220.109375 169.523438 205.476562 154.890625 187.5 154.890625 Z M 187.5 154.890625 " fill-opacity="1" fill-rule="nonzero"/></svg>